<svg xmlns="http://www.w3.org/2000/svg" viewBox="0 0 1588.82 356.22"><defs><style>.cls-1{fill:#fff;}</style></defs><g id="Layer_2" data-name="Layer 2"><g id="Layer_1-2" data-name="Layer 1"><path class="cls-1" d="M187.11,356.22c-32.27-38.46-60.48-75-73.25-120.78-9.26-33.19,2.3-64.54,29.93-83.89,24.19-16.94,58.72-17.29,83.4-.84,27.79,18.52,41.68,50.58,30.94,83.16-8,24.23-20.8,47.14-33.61,69.4C214.22,321.18,200.71,337.24,187.11,356.22ZM185.74,241.8c15.65.15,28-11.73,28.15-27.13a27.33,27.33,0,0,0-27.5-27.78c-15.64-.15-28,11.73-28.15,27.13A27.34,27.34,0,0,0,185.74,241.8Z"/><path class="cls-1" d="M23.86,95.19Q47.71,50.8,90.06,25.4T185.76,0q53.37,0,95.7,25.4t66.2,69.79q23.85,44.38,23.86,99.81,0,46.69-16.42,84.41a169.08,169.08,0,0,1-47.21,63.38l-49.26-53.37q42.08-36.44,42.08-90.31,0-33.36-14.63-59.53a104,104,0,0,0-40.79-40.79q-26.17-14.64-59.53-14.63T126.24,98.79a103.86,103.86,0,0,0-40.8,40.79q-14.62,26.17-14.62,59.53,0,53.87,42.59,90.31L64.15,342.79a166.31,166.31,0,0,1-47.73-63.64Q0,241.19,0,194.49,0,139.57,23.86,95.19Z"/><path class="cls-1" d="M483.27,253.67a69,69,0,0,1-27.8-25.58q-10-16.36-10-37.15t10-37.14a69,69,0,0,1,27.8-25.58Q501,119,523.39,119q22.08,0,38.57,9.22a54.66,54.66,0,0,1,24,26.36l-31.43,16.88q-10.9-19.22-31.43-19.22-15.84,0-26.23,10.39t-10.39,28.31q0,17.92,10.39,28.31t26.23,10.39q20.79,0,31.43-19.22L586,227.57a55.75,55.75,0,0,1-24,26q-16.49,9.34-38.57,9.35Q501.06,262.89,483.27,253.67Z"/><path class="cls-1" d="M631.44,113.28H573.26V79H731.7v34.28H673.52V260.81H631.44Z"/><path class="cls-1" d="M806.63,124.19Q819,119,835.07,119v37.4q-6.75-.53-9.09-.52-17.4,0-27.27,9.74t-9.87,29.22v66H748.32V121.08H787v18.44A45.11,45.11,0,0,1,806.63,124.19Z"/><path class="cls-1" d="M964.68,134.45q17.4,15.47,17.41,46.62v79.74H944.16v-17.4q-11.43,19.48-42.59,19.48-16.11,0-27.92-5.45t-18-15.07a39.17,39.17,0,0,1-6.24-21.82q0-19.47,14.68-30.65t45.32-11.16h32.21q0-13.25-8.05-20.39t-24.16-7.15a70.48,70.48,0,0,0-22,3.51,58.21,58.21,0,0,0-18.31,9.48l-14.54-28.31A88,88,0,0,1,882,123.41,122.88,122.88,0,0,1,914.81,119Q947.29,119,964.68,134.45Zm-34.54,96.36a26.36,26.36,0,0,0,11.43-14.15V202.37H913.78q-24.94,0-24.94,16.37a14.55,14.55,0,0,0,6.1,12.33q6.1,4.55,16.76,4.55A35.25,35.25,0,0,0,930.14,230.81Z"/><path class="cls-1" d="M1047.67,253.67a69,69,0,0,1-27.8-25.58q-10-16.36-10-37.15t10-37.14a69,69,0,0,1,27.8-25.58q17.77-9.23,40.12-9.22,22.08,0,38.57,9.22a54.66,54.66,0,0,1,24,26.36L1119,171.46q-10.9-19.22-31.43-19.22-15.84,0-26.23,10.39t-10.39,28.31q0,17.92,10.39,28.31t26.23,10.39q20.79,0,31.43-19.22l31.43,17.15a55.75,55.75,0,0,1-24,26q-16.48,9.34-38.57,9.35Q1065.46,262.89,1047.67,253.67Z"/><path class="cls-1" d="M1232.72,206l-19.48,19.22v35.58h-40.52V68.09h40.52V177.18l59.22-56.1h48.31l-58.18,59.21L1326,260.81h-49.09Z"/><path class="cls-1" d="M1474.27,202.37H1368.56a32.94,32.94,0,0,0,13.51,20.52q10.65,7.55,26.49,7.53a53.76,53.76,0,0,0,19.35-3.24,47,47,0,0,0,15.72-10.26l21.55,23.37q-19.74,22.61-57.66,22.6-23.64,0-41.81-9.22a67.56,67.56,0,0,1-28.06-25.58q-9.87-16.36-9.87-37.15a71.47,71.47,0,0,1,9.74-37,68.29,68.29,0,0,1,26.76-25.71q17-9.23,38-9.22,20.51,0,37.14,8.83a64.5,64.5,0,0,1,26.1,25.32q9.48,16.5,9.48,38.31Q1475.05,192.24,1474.27,202.37Zm-94.8-44.93q-9.35,7.78-11.43,21.3h68.83q-2.08-13.25-11.43-21.17t-22.85-7.92Q1388.82,149.65,1379.47,157.44Z"/><path class="cls-1" d="M1560.38,124.19q12.33-5.19,28.44-5.19v37.4q-6.77-.53-9.09-.52-17.42,0-27.28,9.74t-9.87,29.22v66h-40.52V121.08h38.71v18.44A45,45,0,0,1,1560.38,124.19Z"/></g></g></svg>